<?xml version="1.0" standalone="no"?>
<!DOCTYPE svg PUBLIC "-//W3C//DTD SVG 20010904//EN"
 "http://www.w3.org/TR/2001/REC-SVG-20010904/DTD/svg10.dtd">
<svg version="1.0" xmlns="http://www.w3.org/2000/svg"
 width="512.000000pt" height="512.000000pt" viewBox="0 0 512.000000 512.000000"
 preserveAspectRatio="xMidYMid meet">
<metadata>
Created by potrace 1.14, written by Peter Selinger 2001-2017
</metadata>
<g transform="translate(0.000000,512.000000) scale(0.100000,-0.100000)"
fill="#000000" stroke="none">
<path d="M0 2560 l0 -2560 2560 0 2560 0 0 2560 0 2560 -2560 0 -2560 0 0
-2560z m1862 0 c180 -564 327 -1028 328 -1032 0 -5 -67 -8 -148 -8 l-149 0
-78 260 -78 260 -392 0 -392 0 -78 -260 -78 -260 -145 0 c-111 0 -143 3 -139
13 7 19 628 1956 644 2010 l14 47 181 -2 182 -3 328 -1025z m868 125 c91 -497
167 -899 170 -892 2 7 92 413 200 902 l195 890 151 3 c116 2 153 0 156 -10 3
-7 94 -414 204 -905 109 -490 200 -890 202 -889 3 3 342 1786 342 1799 0 4 59
7 130 7 98 0 130 -3 130 -12 0 -7 -94 -472 -208 -1033 l-208 -1020 -183 0
-184 0 -188 854 c-103 469 -190 855 -192 857 -2 3 -89 -382 -194 -853 l-190
-858 -177 -3 c-136 -2 -178 0 -181 10 -7 19 -415 2030 -415 2045 0 10 33 13
138 13 l137 0 165 -905z"/>
<path d="M1335 3319 c-3 -13 -75 -253 -159 -534 l-152 -510 164 -3 c90 -1 234
-1 321 0 l158 3 -157 528 c-86 290 -160 530 -163 533 -3 4 -9 -4 -12 -17z"/>
</g>
</svg>
